<?xml version="1.0" standalone="no"?>
<!DOCTYPE svg PUBLIC "-//W3C//DTD SVG 20010904//EN"
 "http://www.w3.org/TR/2001/REC-SVG-20010904/DTD/svg10.dtd">
<svg version="1.0" xmlns="http://www.w3.org/2000/svg"
 width="700.000000pt" height="700.000000pt" viewBox="0 0 700.000000 700.000000"
 preserveAspectRatio="xMidYMid meet">
<metadata>
Created by potrace 1.14, written by Peter Selinger 2001-2017
</metadata>
<g transform="translate(0.000000,700.000000) scale(0.100000,-0.100000)"
fill="#000000" stroke="none">
<path d="M6045 6984 c-77 -20 -188 -81 -239 -130 -89 -87 -120 -140 -186 -324
-23 -63 -45 -124 -50 -135 -5 -11 -37 -96 -71 -190 -34 -93 -72 -184 -85 -201
-13 -18 -43 -41 -67 -53 l-43 -21 -2130 0 c-1400 0 -2151 -4 -2194 -10 -246
-39 -458 -175 -602 -388 -105 -156 -150 -291 -154 -472 -3 -134 5 -187 52
-329 33 -101 236 -676 274 -776 11 -27 76 -210 146 -405 69 -195 143 -402 164
-460 21 -58 75 -208 120 -335 45 -126 96 -257 112 -290 96 -195 286 -359 503
-433 141 -48 106 -47 1545 -47 745 0 1380 3 1410 7 267 30 538 207 667 437 49
87 77 156 172 426 18 50 38 106 46 125 8 19 80 217 160 440 81 223 162 446
180 495 19 50 91 248 160 440 142 394 200 552 222 610 8 22 37 101 63 175 27
74 64 178 83 230 58 161 248 680 284 780 69 187 76 213 79 310 6 160 -43 287
-155 400 -68 69 -145 125 -160 116 -4 -3 -23 -1 -42 5 -52 16 -207 18 -264 3z
m-3759 -1767 c178 -90 215 -329 72 -467 -83 -80 -219 -104 -320 -57 -221 102
-236 390 -27 520 73 44 192 46 275 4z m1008 19 c149 -45 235 -192 201 -342
-31 -134 -147 -225 -289 -225 -48 -1 -72 6 -125 33 -231 118 -210 443 35 532
51 19 119 20 178 2z m1101 -16 c59 -29 131 -110 149 -169 72 -238 -154 -451
-384 -361 -223 87 -249 396 -43 517 24 14 59 29 76 34 52 13 154 2 202 -21z
m-2110 -1053 c164 -84 212 -288 102 -433 -133 -175 -402 -146 -498 53 -27 56
-32 169 -10 223 32 79 116 157 192 178 60 18 159 8 214 -21z m1046 6 c175 -78
226 -311 100 -455 -58 -66 -119 -93 -216 -95 -75 -2 -86 1 -140 31 -229 126
-198 452 50 533 54 17 150 11 206 -14z m1052 3 c51 -21 122 -90 148 -143 60
-124 16 -287 -99 -363 -117 -77 -257 -67 -360 25 -162 146 -113 403 92 485 59
23 159 22 219 -4z m-1067 -1043 c67 -23 145 -102 168 -169 56 -169 -31 -346
-190 -386 -67 -17 -1168 -16 -1231 1 -65 18 -136 80 -169 148 -38 77 -40 183
-5 255 38 79 102 135 181 159 14 4 289 8 611 8 523 1 591 -1 635 -16z m1075
-11 c53 -24 124 -97 146 -150 25 -59 26 -154 2 -217 -59 -158 -250 -232 -401
-156 -69 35 -101 68 -136 141 -76 159 10 343 188 401 42 14 152 4 201 -19z"/>
<path d="M2070 1385 c-262 -61 -455 -237 -532 -487 -23 -76 -31 -245 -16 -334
26 -150 130 -315 264 -418 124 -95 249 -138 412 -142 130 -3 210 15 331 74 77
37 109 60 175 126 90 90 136 160 172 264 32 93 38 131 37 242 -2 303 -194 561
-488 657 -94 30 -263 39 -355 18z"/>
<path d="M4300 1385 c-223 -53 -379 -172 -483 -366 -113 -212 -98 -501 37
-701 78 -115 166 -191 288 -248 116 -53 200 -70 328 -66 366 13 657 300 674
665 15 325 -198 616 -519 708 -69 20 -256 24 -325 8z"/>
</g>
</svg>
